. 
 
http://www.torrenting.com          :     Once & For all ;)


               www . Torrenting . Com 

(((((((((((((= Enjoy No RAR releases =))))))))))))))))))))


...................................NFO:....................................

.








































          
          
              
              
                    
                    
                    
                    

A.Dangerous.Method.2011.BRRiP.AC3-5.1.XviD-SiC

Poster:
[img]http://img46.imageshack.us/img46/7476/adangerousmethodposter.jpg[/img]

IMDB Link: 
http://www.imdb.com/title/tt1571222/

Description:
A look at how the intense relationship between Carl Jung and Sigmund Freud  
gives birth to psychoanalysis.

MediaInfo:
General
Complete name                    : A.Dangerous.Method.2011.BRRiP.AC3-5.1.XviD-SiC.avi
Format                           : AVI
Format/Info                      : Audio Video Interleave
File size                        : 1.40 GiB
Duration                         : 1h 39mn
Overall bit rate                 : 2 019 Kbps

Video
ID                               : 0
Format                           : MPEG-4 Visual
Format profile                   : Advanced Simple@L5
Format settings, BVOP            : Yes
Format settings, QPel            : No
Format settings, GMC             : No warppoints
Format settings, Matrix          : Default (H.263)
Muxing mode                      : Packed bitstream
Codec ID                         : XVID
Codec ID/Hint                    : XviD
Duration                         : 1h 39mn
Bit rate                         : 1 628 Kbps
Width                            : 720 pixels
Height                           : 384 pixels
Display aspect ratio             : 1.875
Frame rate                       : 24.000 fps
Resolution                       : 8 bits
Colorimetry                      : 4:2:0
Scan type                        : Progressive
Bits/(Pixel*Frame)               : 0.245
Stream size                      : 1.13 GiB (81%)
Writing library                  : XviD 64

Audio
ID                               : 1
Format                           : AC-3
Format/Info                      : Audio Coding 3
Format_Settings_ModeExtension    : CM (complete main)
Codec ID                         : 2000
Duration                         : 1h 39mn
Bit rate mode                    : Constant
Bit rate                         : 384 Kbps
Channel(s)                       : 6 channels
Channel positions                : Front: L C R, Side: L R, LFE
Sampling rate                    : 48.0 KHz
Stream size                      : 273 MiB (19%)
Alignment                        : Aligned on interleaves
Interleave, duration             : 64 ms (1.54 video frames)
Interleave, preload duration     : 192 ms
Title                            : 6ch English

Screenshots:
[img]http://img19.imageshack.us/img19/8826/adangerousmethod2011brr.png[/img]
[img]http://img62.imageshack.us/img62/8826/adangerousmethod2011brr.png[/img]
[img]http://img140.imageshack.us/img140/8826/adangerousmethod2011brr.png[/img]
[img]http://img717.imageshack.us/img717/8826/adangerousmethod2011brr.png[/img]
[img]http://img208.imageshack.us/img208/8826/adangerousmethod2011brr.png[/img]
[img]http://img16.imageshack.us/img16/8826/adangerousmethod2011brr.png[/img]


Note: N/A

Source : BluRay-KALIBER Thanks!!!

Enjoy!

Respects to T00NG0D, ELEKTRI4KA, PA, YeFsTe, MrRep and everyone in the struggle...